<svg version="1.1" id="Capa_1" xmlns="http://www.w3.org/2000/svg" xmlnsXlink="http://www.w3.org/1999/xlink" x="0px" y="0px"
	 viewBox="0 0 317.796 317.796" style="enable-background:new 0 0 317.796 317.796;" xml:space="preserve">
<g>
	<g>
		<path d="M70.522,63.064v175.975L241.384,63.064H70.522z M82.456,75.004h130.71L82.456,209.622V75.004z"/>
		<path d="M249.529,245.632V71.811L80.756,245.632H249.529z M237.595,233.698H108.979l128.616-132.465
			V233.698z"/>
		<path d="M273.396,233.698V39.202H82.456V0H46.655v39.202H3.896v35.801h42.759v171.488L1.629,292.866
			l25.699,24.93L74.222,269.5h163.379v39.202h35.801V269.5h42.765v-35.801C316.167,233.698,273.396,233.698,273.396,233.698z
			 M304.227,257.566h-42.765v39.202h-11.934v-39.202H69.168l-42.096,43.361l-8.568-8.312l40.085-41.285V63.064H15.83V51.13h42.759
			V11.928h11.934V51.13h190.94v194.502h42.765V257.566z"/>
	</g>
</g>
<g>
</g>
<g>
</g>
<g>
</g>
<g>
</g>
<g>
</g>
<g>
</g>
<g>
</g>
<g>
</g>
<g>
</g>
<g>
</g>
<g>
</g>
<g>
</g>
<g>
</g>
<g>
</g>
<g>
</g>
</svg>
