<svg width="77px" height="33px" viewBox="0 0 77 33" version="1.1" xmlns="http://www.w3.org/2000/svg" xmlns:xlink="http://www.w3.org/1999/xlink">
    <g id="Page-1" stroke="none" stroke-width="1" fill="none" fill-rule="evenodd">
        <g id="Artboard" transform="translate(-174.000000, -382.000000)" fill="#FFFFFF">
            <g id="Group-2" transform="translate(174.000000, 382.000000)">
                <g id="Group">
                    <g id="HomeStars-Logo_CMYK">
                        <path d="M56.2806271,16.3436 C56.1301655,16.4164 56.030091,16.5088 55.9727056,16.6075 C55.9153202,16.7062 55.8873273,16.8252 55.8873273,16.9505 C55.8873273,17.1283 55.9517109,17.2732 56.0734799,17.3985 C56.1945491,17.5175 56.3737034,17.577 56.6102432,17.577 C56.7963958,17.577 56.9608539,17.5441 57.1183138,17.4713 C57.2757737,17.3985 57.4045409,17.3061 57.5123134,17.1941 C57.6193861,17.0821 57.7054642,16.9435 57.7628496,16.7853 C57.8272332,16.6271 57.8559259,16.4759 57.8559259,16.3107 L57.8559259,16.1 C57.4689245,16.1 57.1470065,16.1196 56.8964703,16.1658 C56.6312378,16.205 56.4310888,16.2645 56.2806271,16.3436" id="Fill-2"></path>
                        <path d="M20.7632738,14 C20.6051141,14 20.4469544,14.0329 20.2950931,14.0931 C20.1432318,14.1526 20.0109655,14.2527 19.8856974,14.385 C19.7667277,14.518 19.6680528,14.6909 19.6022696,14.903 C19.5294881,15.1158 19.4965965,15.3678 19.4965965,15.6604 C19.4965965,16.2778 19.5952713,16.7293 19.7870225,17.0149 C19.9850721,17.3005 20.2950931,17.4461 20.7170856,17.4461 C21.0928899,17.4461 21.3903141,17.3005 21.6142571,17.0016 C21.8388999,16.709 21.9578696,16.2778 21.9578696,15.7129 C21.9578696,15.1424 21.8654931,14.7105 21.6807402,14.4249 C21.4959872,14.1463 21.1922646,14 20.7632738,14" id="Fill-3"></path>
                        <path d="M39.4485145,14 C39.1650867,14 38.9201491,14.0903 38.7332967,14.2702 C38.539446,14.4501 38.4302738,14.6923 38.3917836,14.9849 L40.3575829,14.9849 C40.3764781,14.658 40.2994977,14.4109 40.1315405,14.2478 C39.9642831,14.0791 39.7389405,14 39.4485145,14" id="Fill-4"></path>
                        <path d="M69.7428997,17.9389 C69.596637,18.221 69.3978876,18.4632 69.1326552,18.6648 C68.8667229,18.8664 68.548304,19.0204 68.1836969,19.1282 C67.8120916,19.236 67.4005964,19.2892 66.9429129,19.2892 C66.4054498,19.2892 65.9148748,19.229 65.4697882,19.1016 L65.5761611,17.4216 C65.9876563,17.6029 66.4523379,17.6904 66.9695062,17.6904 C67.2284402,17.6904 67.4271896,17.6435 67.5734523,17.549 C67.7190153,17.4552 67.7854983,17.3278 67.7854983,17.1598 C67.7854983,16.9981 67.7260135,16.8707 67.606344,16.7699 C67.4873743,16.6761 67.3341133,16.5886 67.1486605,16.5214 C66.9632078,16.4472 66.7707568,16.3737 66.558011,16.2925 C66.345965,16.212 66.153514,16.0979 65.9680612,15.9572 C65.7819087,15.8088 65.6356459,15.6275 65.509678,15.3923 C65.3907083,15.1641 65.3305236,14.8617 65.3305236,14.4921 C65.3305236,14.1834 65.3907083,13.8943 65.5033796,13.6185 C65.6160509,13.3434 65.7952053,13.1012 66.0408427,12.8996 C66.2794819,12.698 66.5846042,12.537 66.9562096,12.4159 C67.3278149,12.3018 67.7659033,12.2416 68.2767732,12.2416 C68.4559276,12.2416 68.6483785,12.2549 68.8541261,12.2752 C69.0591739,12.2955 69.2586231,12.3291 69.4440759,12.3627 L69.3775928,13.9748 C69.2054366,13.9146 69.0199839,13.8677 68.8205347,13.8404 C68.6217853,13.8138 68.4223361,13.8005 68.2235867,13.8005 C67.9646527,13.8005 67.7722017,13.8474 67.6462338,13.9412 C67.5202659,14.035 67.460781,14.1631 67.460781,14.3178 C67.460781,14.4655 67.5202659,14.5796 67.6462338,14.6734 C67.7722017,14.7609 67.9247629,14.8484 68.1109154,14.9289 C68.2963682,15.0094 68.4958174,15.0969 68.7078634,15.1844 C68.9199094,15.2719 69.1193586,15.3923 69.3048113,15.54 C69.4909639,15.6884 69.6435251,15.8697 69.769493,16.1049 C69.8954609,16.3331 69.9549457,16.6285 69.9549457,16.9918 C69.9549457,17.3341 69.8821643,17.6498 69.7428997,17.9389 Z M64.7272773,14.2772 C64.163221,14.1498 63.7384292,14.2506 63.4536017,14.5796 C63.1680744,14.9086 63.0218117,15.5001 63.0218117,16.3534 L63.0218117,19.1352 L60.998627,19.1352 L60.998627,12.3963 L62.8895454,12.3963 C62.8895454,12.544 62.8825472,12.7253 62.8692506,12.9472 C62.8559539,13.1684 62.8293607,13.3833 62.7964691,13.5919 L62.8230623,13.5919 C63.0022167,13.1817 63.2478541,12.8527 63.5725714,12.5909 C63.8909903,12.3291 64.3094837,12.208 64.8196538,12.2346 L64.7272773,14.2772 Z M57.787145,19.1415 C57.787145,18.9805 57.787145,18.8125 57.7941432,18.6375 C57.8004416,18.4632 57.8137383,18.2952 57.8403315,18.1202 L57.8270349,18.1202 C57.6681753,18.4765 57.4022431,18.7586 57.0376359,18.9672 C56.672329,19.1821 56.2545354,19.2829 55.7905536,19.2829 C55.4721347,19.2829 55.1866074,19.229 54.9479682,19.1282 C54.7086292,19.0274 54.5028816,18.8797 54.344022,18.6984 C54.1844627,18.5164 54.0584948,18.3085 53.9724167,18.0663 C53.8863386,17.8248 53.8464488,17.5693 53.8464488,17.2872 C53.8464488,16.8637 53.9395251,16.5011 54.1249778,16.1924 C54.3104306,15.89 54.5693646,15.6408 54.9010801,15.4532 C55.2327956,15.2649 55.6246958,15.1235 56.0886776,15.0297 C56.5463611,14.9422 57.0509325,14.8953 57.594694,14.8953 L57.594694,14.6265 C57.594694,14.3444 57.508616,14.1358 57.33576,14.0014 C57.1636038,13.8677 56.8521832,13.8005 56.4070965,13.8005 C56.1152709,13.8005 55.796852,13.8404 55.4721347,13.9279 C55.1397194,14.0154 54.8415953,14.1225 54.5763629,14.2436 L54.2243525,12.6308 C54.5763629,12.5034 54.9738616,12.4026 55.4252466,12.3291 C55.8766317,12.2549 56.3210185,12.2143 56.7591069,12.2143 C57.3231632,12.2143 57.787145,12.2682 58.1587504,12.369 C58.5303557,12.4768 58.8291796,12.6245 59.0482238,12.8324 C59.2735664,13.034 59.4261276,13.2825 59.5192038,13.5716 C59.6052819,13.8607 59.6514702,14.1897 59.6514702,14.5593 L59.6514702,17.5357 C59.6514702,17.7779 59.6584684,18.0397 59.6647668,18.3218 C59.671765,18.6039 59.6850616,18.8727 59.7046566,19.1352 L57.787145,19.1415 Z M52.5062901,19.236 C52.2410577,19.2696 51.9821236,19.2892 51.7427846,19.2892 C51.3585825,19.2892 51.0401636,19.2556 50.7812295,19.1821 C50.5222955,19.1079 50.3102495,18.9868 50.1506901,18.8188 C49.9918306,18.6508 49.8784595,18.4296 49.8126762,18.1538 C49.7461932,17.8787 49.7126017,17.5294 49.7126017,17.1122 L49.7126017,13.9748 L48.7111568,13.9748 L48.7111568,12.3893 L49.7126017,12.3893 L49.7126017,10.3936 L51.7630794,9.8364 L51.7630794,12.3893 L53.1963144,12.3893 L53.1963144,13.9748 L51.7630794,13.9748 L51.7630794,16.6355 C51.7630794,16.9785 51.8092677,17.22 51.9086424,17.3544 C52.0087169,17.4888 52.1878712,17.556 52.4461055,17.556 C52.5727732,17.556 52.6917429,17.549 52.8044142,17.5294 C52.9177853,17.5091 53.0304566,17.4888 53.1494263,17.4622 L53.2690958,19.0743 C53.0234584,19.1485 52.777821,19.1954 52.5062901,19.236 Z M48.2730684,17.4482 C48.1009122,17.8248 47.8552748,18.1475 47.5368559,18.4226 C47.218437,18.6984 46.8405333,18.9133 46.4024448,19.068 C45.9643564,19.222 45.4800798,19.2962 44.9426167,19.2962 C44.5115265,19.2962 44.1266245,19.2759 43.7746142,19.236 C43.4233037,19.1954 43.0978866,19.1352 42.7864659,19.054 L42.9852153,17.045 C43.2770409,17.1731 43.5961596,17.2739 43.9278752,17.3411 C44.2658891,17.4146 44.6178994,17.4482 44.9958031,17.4482 C45.333817,17.4482 45.6263425,17.3747 45.8649817,17.227 C46.103621,17.0786 46.2295889,16.8371 46.2295889,16.5011 C46.2295889,16.2393 46.1435108,16.0377 45.9643564,15.89 C45.7852021,15.7416 45.5598595,15.6142 45.294627,15.5001 C45.0286948,15.386 44.7368691,15.2719 44.4254484,15.1508 C44.1133279,15.0367 43.8215022,14.875 43.5562698,14.6734 C43.2910374,14.4718 43.0649949,14.217 42.8858406,13.9076 C42.7066862,13.5989 42.6206081,13.1817 42.6206081,12.6644 C42.6206081,12.2283 42.7003878,11.8384 42.8592473,11.4891 C43.0188067,11.1398 43.2511475,10.8374 43.5562698,10.5889 C43.8613921,10.3334 44.2329974,10.1381 44.6773842,10.0044 C45.1217711,9.87 45.6263425,9.8028 46.1966973,9.8028 C46.4290381,9.8028 46.6942705,9.8161 46.9993928,9.8427 C47.3045151,9.87 47.5830441,9.9169 47.8419782,9.9771 L47.6565254,11.8251 C47.1456555,11.6431 46.6277875,11.5563 46.103621,11.5563 C45.6725308,11.5563 45.3604103,11.6368 45.1616609,11.7915 C44.9363183,11.9728 44.8362438,12.2143 44.862837,12.5237 C44.8761336,12.698 44.9692099,12.8597 45.1084744,12.9668 C45.294627,13.1215 45.5332662,13.2629 45.8180937,13.3903 C46.0903243,13.5114 46.38215,13.6388 46.7005689,13.7669 C47.0189878,13.8943 47.3115133,14.0553 47.5830441,14.2639 C47.8552748,14.4655 48.0806174,14.7273 48.26677,15.0367 C48.4522227,15.3454 48.5383008,15.7416 48.5383008,16.2253 C48.5320024,16.6691 48.4459243,17.0723 48.2730684,17.4482 Z M41.9039907,15.8088 C41.890694,15.9572 41.8773974,16.1182 41.8578024,16.2925 L37.8765165,16.2925 C37.8835147,16.7363 38.0227793,17.0786 38.2950099,17.3278 C38.5665407,17.5693 38.9780359,17.6974 39.5287956,17.6974 C39.8542128,17.6974 40.1789301,17.6638 40.5106456,17.5966 C40.8423611,17.5294 41.1677782,17.4216 41.4924955,17.2802 L41.6919447,18.8391 C41.3070427,18.9938 40.8955475,19.1079 40.4644573,19.1821 C40.0333671,19.2556 39.6085753,19.2962 39.1970801,19.2962 C38.1025589,19.2962 37.2662719,19.0204 36.688919,18.4695 C36.1052677,17.9186 35.813442,17.045 35.813442,15.8494 C35.813442,15.3321 35.8799251,14.8547 36.0191896,14.4116 C36.1584541,13.9678 36.3642017,13.5849 36.6364324,13.2629 C36.9079632,12.9402 37.2466769,12.6917 37.6448755,12.5104 C38.0423743,12.3291 38.5007575,12.2416 39.024924,12.2416 C39.5287956,12.2416 39.9598858,12.3221 40.3251928,12.4831 C40.6897999,12.6448 40.9949222,12.866 41.2335614,13.1488 C41.4729005,13.4309 41.6450566,13.7599 41.7577279,14.1358 C41.871099,14.5194 41.9242855,14.9289 41.9242855,15.3727 C41.9305839,15.5134 41.9172873,15.6548 41.9039907,15.8088 Z M34.8182955,19.1415 L32.7685176,19.1415 L32.7685176,14.9086 C32.7685176,14.6202 32.7286277,14.3913 32.6418498,14.2233 C32.5557718,14.0553 32.4032106,13.9748 32.1708698,13.9748 C32.0183087,13.9748 31.8657475,14.0217 31.7131864,14.1162 C31.5606252,14.21 31.4213607,14.3444 31.2953928,14.5194 C31.1694249,14.6937 31.0693504,14.8953 30.9965689,15.1305 C30.9237875,15.3657 30.8838976,15.6212 30.8838976,15.89 L30.8838976,19.1415 L28.8600131,19.1415 L28.8600131,14.8953 C28.8600131,14.6202 28.8208231,14.3983 28.7410434,14.2303 C28.6612637,14.0553 28.495406,13.9748 28.2567668,13.9748 C28.0972074,13.9748 27.9313497,14.0217 27.7724901,14.1225 C27.6129308,14.2233 27.4673678,14.3577 27.3476983,14.5327 C27.2280288,14.707 27.1286541,14.9086 27.0488744,15.1375 C26.9697946,15.3657 26.9362031,15.6212 26.9362031,15.89 L26.9362031,19.1415 L24.9130185,19.1415 L24.9130185,12.3963 L26.8039368,12.3963 C26.8039368,12.5237 26.7969386,12.6847 26.783642,12.8863 C26.7703454,13.0879 26.7507504,13.2762 26.7241571,13.4575 L26.7374538,13.4575 C26.9432014,13.0816 27.235027,12.7855 27.6066324,12.5706 C27.9782377,12.3557 28.4023297,12.2479 28.8803079,12.2479 C29.3911778,12.2479 29.802673,12.3627 30.1007971,12.5909 C30.399621,12.8191 30.6053686,13.1082 30.7117415,13.4575 C30.890196,13.1285 31.1561283,12.8394 31.514437,12.6042 C31.8727457,12.369 32.3038359,12.2479 32.8077076,12.2479 C33.4585418,12.2479 33.9561151,12.4362 34.3011272,12.8128 C34.6454395,13.1887 34.8182955,13.7599 34.8182955,14.5327 L34.8182955,19.1415 Z M23.6519397,17.1192 C23.4727853,17.5693 23.2278477,17.9592 22.9157272,18.2819 C22.6036067,18.6039 22.2327012,18.8524 21.8009112,19.0274 C21.369821,19.2024 20.9051393,19.2892 20.4075661,19.2892 C19.9232894,19.2892 19.4859008,19.229 19.0940006,19.1016 C18.7028003,18.9735 18.3640866,18.7789 18.0792591,18.5031 C17.8007301,18.2343 17.5816858,17.885 17.4291247,17.4552 C17.2765636,17.0317 17.2030823,16.5214 17.2030823,15.9236 C17.2030823,15.3727 17.2898602,14.8687 17.4620163,14.4186 C17.6348723,13.9678 17.8798099,13.5786 18.1982288,13.2559 C18.5166477,12.9332 18.888253,12.6847 19.3200431,12.5104 C19.7511333,12.3354 20.2151151,12.2479 20.725985,12.2479 C21.7477247,12.2479 22.5308252,12.53 23.0885832,13.0879 C23.6386431,13.6521 23.9178719,14.4921 23.9178719,15.6275 C23.9178719,16.1651 23.831094,16.6621 23.6519397,17.1192 Z M16.1421525,19.1415 L14.051785,19.1415 L14.051785,15.3251 L10.7409283,15.3251 L10.7409283,19.1415 L8.65126053,19.1415 L8.65126053,9.9771 L10.7409283,9.9771 L10.7409283,13.4911 L14.051785,13.4911 L14.051785,9.9771 L16.1421525,9.9771 L16.1421525,19.1415 Z M72.9074937,6.2279 C71.0102769,5.523 68.8737211,5.4894 66.8764299,5.3144 C64.634201,5.1198 62.2855992,4.9385 60.0496687,4.7502 C55.3853568,4.347 50.7679329,4.0243 46.103621,3.6148 C36.8281835,2.8014 27.5534459,1.9754 18.2780085,1.1823 C15.8699219,0.9744 13.4618352,0.7588 11.0530488,0.5642 C9.13553718,0.3696 5.67211936,0 5.1682477,0 C2.1562149,0.0133 0.650198502,2.0153 0.158923636,4.5353 C-0.0335273448,5.523 -0.0398257405,6.5373 0.0791439564,7.5383 C0.510933974,11.1734 0.875541104,14.8281 1.43959743,18.4359 C1.85109262,21.0427 2.64049155,23.6166 4.96250011,25.1013 C7.19843059,26.5258 11.8956342,26.2094 15.1337094,26.2164 C18.888253,26.2164 22.6504948,26.2164 26.4057383,26.2234 C34.1086762,26.2234 41.8109144,26.2234 49.5138523,26.2094 C50.5425903,26.2094 53.3817671,26.2234 53.3817671,26.2234 C53.3817671,26.2234 53.8597454,26.586 54.2908356,27.0025 C55.3986534,28.0644 56.5862509,29.0381 57.8536281,29.8914 C60.0825604,31.3831 63.3801204,33.2171 66.1472156,32.9623 C63.9308801,31.3432 62.6837978,29.0115 62.4913468,26.2633 C66.4124481,26.1758 72.1845778,26.761 74.6591475,23.7174 C76.9013764,20.9559 76.6627372,16.6089 76.7754085,13.2489 C76.8880798,10.2123 75.9328231,7.3437 72.9074937,6.2279 Z" id="Fill-6"></path>
                    </g>
                </g>
            </g>
        </g>
    </g>
</svg>